<svg id="Layer_1" height="512" viewBox="0 0 512 512" width="512" xmlns="http://www.w3.org/2000/svg" data-name="Layer 1"><path d="m372.72 443.721 96.28-44.475v-105.544l-96.28 43.986z"/><path d="m145.395 239.986-92.626 42.787 93.511 42.72 92.62-42.314z"/><path d="m366.605 239.986-93.505 43.193 92.62 42.314 93.511-42.72z"/><path d="m43 399.246 96.28 44.475v-106.033l-96.28-43.986z"/><path d="m153.28 443.721 95.72-44.216v-105.547l-95.72 43.73z"/><path d="m263 272.423 96.28-44.475v-105.494l-96.28 44.474z"/><path d="m263 399.505 95.72 44.216v-106.033l-95.72-43.73z"/><path d="m256 68.279-93.588 43.231 93.588 43.231 93.588-43.231z"/><path d="m152.72 227.948 96.28 44.475v-105.495l-96.28-44.474z"/></svg>